<svg viewBox="0 0 64 64" xmlns="http://www.w3.org/2000/svg" aria-label="Ink Battle Favicon">
  <defs>
    <filter id="soft-shadow" x="-20%" y="-20%" width="140%" height="140%">
      <feDropShadow dx="0" dy="1.4" stdDeviation="1.2" flood-color="#0f172a" flood-opacity="0.28" />
    </filter>
    <linearGradient id="pencil-body" x1="0%" y1="0%" x2="100%" y2="100%">
      <stop offset="0%" stop-color="#facc15" />
      <stop offset="100%" stop-color="#f59e0b" />
    </linearGradient>
    <linearGradient id="brush-body" x1="0%" y1="0%" x2="100%" y2="100%">
      <stop offset="0%" stop-color="#22d3ee" />
      <stop offset="100%" stop-color="#0ea5e9" />
    </linearGradient>
  </defs>

  <g filter="url(#soft-shadow)" transform="translate(32 32) scale(1.18) translate(-32 -32)">
    <g transform="rotate(-38 32 32)">
      <rect x="27.6" y="9.2" width="8.8" height="30" rx="2" fill="url(#pencil-body)" stroke="#1f2937" stroke-width="1.7" />
      <rect x="27.6" y="6.6" width="8.8" height="4.4" rx="1.4" fill="#fb7185" stroke="#1f2937" stroke-width="1.5" />
      <polygon points="27.6,39.2 36.4,39.2 32,49.8" fill="#fde68a" stroke="#1f2937" stroke-width="1.5" />
      <polygon points="30.4,46.8 33.6,46.8 32,50.3" fill="#1f2937" />
    </g>

    <g transform="rotate(38 32 32)">
      <rect x="27.6" y="11.4" width="8.8" height="25.4" rx="2" fill="url(#brush-body)" stroke="#1f2937" stroke-width="1.7" />
      <rect x="27" y="36.3" width="10" height="3.6" rx="1.2" fill="#f59e0b" stroke="#1f2937" stroke-width="1.5" />
      <path d="M27.4 39.6 H36.6 L34.8 48.2 C34.4 50.2 32.8 51.4 32 51.4 C31.2 51.4 29.6 50.2 29.2 48.2 Z" fill="#e5e7eb" stroke="#1f2937" stroke-width="1.5" />
      <path d="M30 51.1 Q32 56.5 34 51.1" fill="#6366f1" stroke="#1f2937" stroke-width="1.2" />
    </g>
  </g>
</svg>
